<svg fill="none" height="118" viewBox="0 0 461 118" width="461" xmlns="http://www.w3.org/2000/svg" xmlns:xlink="http://www.w3.org/1999/xlink"><linearGradient id="a" gradientUnits="userSpaceOnUse" x1="301.482" x2="301.482" y1="25.0398" y2="97.4977"><stop offset="0" stop-color="#083261"/><stop offset=".769047" stop-color="#053469" stop-opacity="0"/></linearGradient><linearGradient id="b" gradientUnits="userSpaceOnUse" x1="48.8834" x2="48.8834" y1="61.5374" y2="43.6172"><stop offset="0" stop-color="#cacbcd"/><stop offset=".06" stop-color="#d1d2d4"/><stop offset=".22" stop-color="#dddedf"/><stop offset=".44" stop-color="#e4e5e6"/><stop offset="1" stop-color="#e6e7e8"/></linearGradient><g clip-rule="evenodd" fill-rule="evenodd"><path d="m337.241 94.9662c1.095-1.0484 1.743-2.4787 1.81-3.9934v-60.3058c-.067-1.5147-.715-2.945-1.81-3.9934-1.095-1.0483-2.553-1.6338-4.069-1.6338s-2.974.5855-4.069 1.6338c-1.095 1.0484-1.743 2.4787-1.81 3.9934v22.2549c-3.701-4.8267-9.046-9.0009-17.495-9.0009-12.253 0-23.819 9.6196-23.819 26.6312v.2022c0 17.0116 11.758 26.6312 23.819 26.6312 8.359 0 13.704-4.2752 17.495-9.6194v3.2066c.067 1.5147.715 2.945 1.81 3.9934 1.095 1.0483 2.553 1.6338 4.069 1.6338s2.974-.5855 4.069-1.6338zm-39.403-24.2118v-.2022c0-10.2047 6.706-16.4266 14.773-16.4266 7.875 0 14.873 6.5144 14.873 16.4266v.2022c0 9.8109-6.851 16.4267-14.873 16.4267s-14.773-6.5145-14.773-16.4267zm-121.029.0906c0 15.8415 11.476 26.6427 26.339 26.6427 6.812.1875 13.432-2.2682 18.474-6.8523.974-.9472 1.532-2.2416 1.553-3.6.018-.6213-.089-1.24-.316-1.8189-.226-.579-.567-1.1066-1.002-1.5509-.434-.4443-.954-.7962-1.528-1.035s-1.19-.3592-1.812-.3544c-1.104-.0381-2.182.3436-3.015 1.0686-3.374 2.9189-7.69 4.5175-12.151 4.5004-7.584 0-13.513-4.6687-14.785-13.0283h32.179c.736.0062 1.467-.136 2.148-.4175s1.298-.6966 1.816-1.2212c.517-.5247.924-1.1484 1.196-1.8333.271-.6848.403-1.4169.386-2.1535 0-11.8586-8.067-25.2699-24.403-25.2699-14.672 0-25.079 12.0497-25.079 26.7323zm24.989-17.293c7.774 0 12.241 5.918 13.017 13.5012h-26.338c1.069-7.9545 6.12-13.5012 13.321-13.5012zm-58.502-5.4844c-.286.7202-.424 1.4904-.408 2.265v40.65c-.006.767.141 1.5278.431 2.2376.291.7098.72 1.3546 1.262 1.8969.543.5424 1.188.9717 1.898 1.2625s1.47.4372 2.237.4313c.773.0089 1.539-.1351 2.256-.4236s1.37-.7159 1.921-1.2575.989-1.1869 1.29-1.8986.458-1.4759.462-2.2486v-15.1664c0-12.1512 5.738-18.5641 14.098-20.0267 1.33-.2078 2.538-.8941 3.398-1.9299.86-1.0359 1.312-2.3501 1.271-3.6956.055-.7806-.058-1.564-.332-2.297-.274-.7329-.702-1.398-1.256-1.9508-.554-.5527-1.22-.9804-1.954-1.2531-.733-.2726-1.517-.3842-2.297-.3274-5.153 0-10.205 4.838-12.928 11.2511v-5.2542c.006-.7803-.143-1.5539-.439-2.276s-.732-1.3782-1.284-1.93c-.552-.5517-1.208-.988-1.93-1.2838-.722-.2959-1.496-.4455-2.276-.4395-.775-.0032-1.542.149-2.258.4472-.715.2981-1.363.7362-1.906 1.2888s-.97 1.2081-1.256 1.9283zm88.239 33.4756v-.2027c0-11.0823 8.652-16.5168 21.197-16.5168 4.697-.0425 9.369.6914 13.827 2.1717v-1.2712c0-7.2907-4.5-11.1726-12.736-11.1726-3.887-.0502-7.747.641-11.375 2.0366-.598.1835-1.219.2817-1.845.2922-.646.0089-1.286-.1095-1.886-.3494-.599-.2398-1.145-.5958-1.606-1.0476-.462-.4518-.829-.9906-1.081-1.585-.252-.5943-.384-1.2327-.389-1.8782.02-1.0064.335-1.9847.905-2.8145.569-.8297 1.37-1.4746 2.302-1.8546 5.266-2.0521 10.877-3.0719 16.528-3.004 7.684 0 13.411 2.0363 17.011 5.7266 3.792 3.7016 5.547 9.1357 5.547 15.8526v25.2699c0 .7483-.149 1.4894-.439 2.1793-.289.69-.714 1.3154-1.248 1.8393-.535.5239-1.168.9359-1.864 1.2119-.695.276-1.439.41-2.187.395-3.375 0-5.738-2.3286-5.738-4.9613v-1.9355c-2.044 2.4379-4.618 4.3764-7.525 5.6673-2.908 1.2909-6.071 1.9001-9.25 1.7811-9.586 0-18.148-5.5354-18.148-15.8301zm35.193-3.7016v-3.4995c-3.733-1.3812-7.687-2.0708-11.667-2.036-7.584 0-12.05 3.2062-12.05 8.5504v.1917c0 4.9618 4.376 7.7857 10.013 7.7857 7.775 0 13.704-4.478 13.704-10.9923zm107.223 19.6461c-14.874 0-26.338-10.8012-26.338-26.6427v-.1912c0-14.6826 10.396-26.7323 25.078-26.7323 16.325 0 24.392 13.4113 24.392 25.2699.019.7361-.112 1.4682-.382 2.153-.271.6848-.676 1.3078-1.193 1.8327-.516.5248-1.133.9407-1.813 1.2223-.681.2816-1.411.4238-2.147.4175h-32.178c1.26 8.3596 7.189 13.0283 14.773 13.0283 4.461.0192 8.778-1.5798 12.151-4.5004.833-.725 1.911-1.1067 3.015-1.0685.622-.0048 1.239.1157 1.813.3543.575.2386 1.096.5904 1.531 1.0345.436.4441.778.9713 1.005 1.5503.228.579.337 1.1981.32 1.82-.025 1.3573-.583 2.65-1.552 3.6-5.044 4.5821-11.663 7.0375-18.475 6.8523zm11.668-30.4345c-.777-7.5832-5.255-13.5012-13.029-13.5012-7.19 0-12.253 5.5467-13.322 13.5012zm19.734 3.7017v.1912c0 14.5814 11.566 26.5416 27.216 26.5416 15.842 0 27.509-12.1064 27.509-26.7328v-.2022c0-14.6714-11.566-26.6312-27.318-26.6312-15.751 0-27.407 12.1507-27.407 26.8334zm42.968 0v.1912c0 8.8433-6.031 16.2355-15.561 16.2355-9.136 0-15.65-7.4934-15.65-16.4267v-.2022c0-8.9446 6.031-16.3256 15.459-16.3256 9.237 0 15.752 7.5269 15.752 16.5278z" fill="#4a87cc"/><path d="m337.241 94.9662c1.095-1.0484 1.743-2.4787 1.81-3.9934v-60.3058c-.067-1.5147-.715-2.945-1.81-3.9934-1.095-1.0483-2.553-1.6338-4.069-1.6338s-2.974.5855-4.069 1.6338c-1.095 1.0484-1.743 2.4787-1.81 3.9934v22.2549c-3.701-4.8267-9.046-9.0009-17.495-9.0009-12.253 0-23.819 9.6196-23.819 26.6312v.2022c0 17.0116 11.758 26.6312 23.819 26.6312 8.359 0 13.704-4.2752 17.495-9.6194v3.2066c.067 1.5147.715 2.945 1.81 3.9934 1.095 1.0483 2.553 1.6338 4.069 1.6338s2.974-.5855 4.069-1.6338zm-39.403-24.2118v-.2022c0-10.2047 6.706-16.4266 14.773-16.4266 7.875 0 14.873 6.5144 14.873 16.4266v.2022c0 9.8109-6.851 16.4267-14.873 16.4267s-14.773-6.5145-14.773-16.4267zm-121.029.0906c0 15.8415 11.476 26.6427 26.339 26.6427 6.812.1875 13.432-2.2682 18.474-6.8523.974-.9472 1.532-2.2416 1.553-3.6.018-.6213-.089-1.24-.316-1.8189-.226-.579-.567-1.1066-1.002-1.5509-.434-.4443-.954-.7962-1.528-1.035s-1.19-.3592-1.812-.3544c-1.104-.0381-2.182.3436-3.015 1.0686-3.374 2.9189-7.69 4.5175-12.151 4.5004-7.584 0-13.513-4.6687-14.785-13.0283h32.179c.736.0062 1.467-.136 2.148-.4175s1.298-.6966 1.816-1.2212c.517-.5247.924-1.1484 1.196-1.8333.271-.6848.403-1.4169.386-2.1535 0-11.8586-8.067-25.2699-24.403-25.2699-14.672 0-25.079 12.0497-25.079 26.7323zm24.989-17.293c7.774 0 12.241 5.918 13.017 13.5012h-26.338c1.069-7.9545 6.12-13.5012 13.321-13.5012zm-58.502-5.4844c-.286.7202-.424 1.4904-.408 2.265v40.65c-.006.767.141 1.5278.431 2.2376.291.7098.72 1.3546 1.262 1.8969.543.5424 1.188.9717 1.898 1.2625s1.47.4372 2.237.4313c.773.0089 1.539-.1351 2.256-.4236s1.37-.7159 1.921-1.2575.989-1.1869 1.29-1.8986.458-1.4759.462-2.2486v-15.1664c0-12.1512 5.738-18.5641 14.098-20.0267 1.33-.2078 2.538-.8941 3.398-1.9299.86-1.0359 1.312-2.3501 1.271-3.6956.055-.7806-.058-1.564-.332-2.297-.274-.7329-.702-1.398-1.256-1.9508-.554-.5527-1.22-.9804-1.954-1.2531-.733-.2726-1.517-.3842-2.297-.3274-5.153 0-10.205 4.838-12.928 11.2511v-5.2542c.006-.7803-.143-1.5539-.439-2.276s-.732-1.3782-1.284-1.93c-.552-.5517-1.208-.988-1.93-1.2838-.722-.2959-1.496-.4455-2.276-.4395-.775-.0032-1.542.149-2.258.4472-.715.2981-1.363.7362-1.906 1.2888s-.97 1.2081-1.256 1.9283zm88.239 33.4756v-.2027c0-11.0823 8.652-16.5168 21.197-16.5168 4.697-.0425 9.369.6914 13.827 2.1717v-1.2712c0-7.2907-4.5-11.1726-12.736-11.1726-3.887-.0502-7.747.641-11.375 2.0366-.598.1835-1.219.2817-1.845.2922-.646.0089-1.286-.1095-1.886-.3494-.599-.2398-1.145-.5958-1.606-1.0476-.462-.4518-.829-.9906-1.081-1.585-.252-.5943-.384-1.2327-.389-1.8782.02-1.0064.335-1.9847.905-2.8145.569-.8297 1.37-1.4746 2.302-1.8546 5.266-2.0521 10.877-3.0719 16.528-3.004 7.684 0 13.411 2.0363 17.011 5.7266 3.792 3.7016 5.547 9.1357 5.547 15.8526v25.2699c0 .7483-.149 1.4894-.439 2.1793-.289.69-.714 1.3154-1.248 1.8393-.535.5239-1.168.9359-1.864 1.2119-.695.276-1.439.41-2.187.395-3.375 0-5.738-2.3286-5.738-4.9613v-1.9355c-2.044 2.4379-4.618 4.3764-7.525 5.6673-2.908 1.2909-6.071 1.9001-9.25 1.7811-9.586 0-18.148-5.5354-18.148-15.8301zm35.193-3.7016v-3.4995c-3.733-1.3812-7.687-2.0708-11.667-2.036-7.584 0-12.05 3.2062-12.05 8.5504v.1917c0 4.9618 4.376 7.7857 10.013 7.7857 7.775 0 13.704-4.478 13.704-10.9923zm107.223 19.6461c-14.874 0-26.338-10.8012-26.338-26.6427v-.1912c0-14.6826 10.396-26.7323 25.078-26.7323 16.325 0 24.392 13.4113 24.392 25.2699.019.7361-.112 1.4682-.382 2.153-.271.6848-.676 1.3078-1.193 1.8327-.516.5248-1.133.9407-1.813 1.2223-.681.2816-1.411.4238-2.147.4175h-32.178c1.26 8.3596 7.189 13.0283 14.773 13.0283 4.461.0192 8.778-1.5798 12.151-4.5004.833-.725 1.911-1.1067 3.015-1.0685.622-.0048 1.239.1157 1.813.3543.575.2386 1.096.5904 1.531 1.0345.436.4441.778.9713 1.005 1.5503.228.579.337 1.1981.32 1.82-.025 1.3573-.583 2.65-1.552 3.6-5.044 4.5821-11.663 7.0375-18.475 6.8523zm11.668-30.4345c-.777-7.5832-5.255-13.5012-13.029-13.5012-7.19 0-12.253 5.5467-13.322 13.5012zm19.734 3.7017v.1912c0 14.5814 11.566 26.5416 27.216 26.5416 15.842 0 27.509-12.1064 27.509-26.7328v-.2022c0-14.6714-11.566-26.6312-27.318-26.6312-15.751 0-27.407 12.1507-27.407 26.8334zm42.968 0v.1912c0 8.8433-6.031 16.2355-15.561 16.2355-9.136 0-15.65-7.4934-15.65-16.4267v-.2022c0-8.9446 6.031-16.3256 15.459-16.3256 9.237 0 15.752 7.5269 15.752 16.5278z" fill="url(#a)" fill-opacity=".2"/><path d="m24.7274 17.6053c-.0068 3.3699.9369 6.6732 2.7225 9.5312 1.7857 2.8579 4.341 5.1549 7.3727 6.6264-6.7921 1.7606-12.9538 5.3922-17.7838 10.4818-4.8299 5.0897-8.13451 11.4324-9.53734 18.3074h26.21274c.9264-4.8565 3.1953-9.3558 6.5492-12.9882s7.6585-6.2521 12.4258-7.5621c-2.1237-1.0848-3.9047-2.7378-5.1448-4.7747-1.24-2.0369-1.8905-4.3781-1.8791-6.7627-.0499-3.3588 1.2357-6.5996 3.5744-9.0109 2.3386-2.4113 5.539-3.7955 8.8977-3.8482.8572.0002 1.7118.0893 2.5504.2666v-.2666c-.1277-4.6839-2.0778-9.13299-5.4359-12.40074-3.358-3.26775-7.8589-5.096162-12.5445-5.096162-4.6855 0-9.1861 1.828412-12.5441 5.096162s-5.3082 7.71684-5.4359 12.40074z" fill="#3db8e5"/><path d="m51.688 33.4559c-.0158 2.3839.6313 4.7248 1.8693 6.7621s3.018 3.6905 5.1411 4.7747c-4.7626 1.3164-9.062 3.9384-12.4127 7.5699-3.3508 3.6316-5.6192 8.1281-6.5489 12.981h50.9294c-.9682-5.1055-3.4202-9.8125-7.0493-13.5319s-8.2743-6.2863-13.3546-7.3795c1.9546-1.1363 3.5751-2.7675 4.6981-4.7298 1.123-1.9622 1.7086-4.1856 1.6982-6.4465 0-3.3113-1.3154-6.4875-3.6569-8.8289-2.3414-2.3415-5.517-3.6565-8.8283-3.6565s-6.4871 1.315-8.8286 3.6565c-2.3415 2.3414-3.6568 5.5176-3.6568 8.8289z" fill="#3db8e5"/></g><path d="m48.4562 61.6176s-.0002-17.2393-44.2664-17.2393l-.77427 38.6046 45.04067 14.5282 45.8951-14.328-1.7757-40.0599c-41.3152-.0535-44.1194 18.4944-44.1194 18.4944z" fill="url(#b)"/><path d="m45.3987 60.7093-41.58239-12.3381c-.43434-.1289-.89257-.1545-1.33859-.075s-.86729.2617-1.23036.5327c-.363061.271-.657912.6232-.860985 1.0282-.203074.405-.3087355.8516-.3087305 1.3047v50.7422c-.0014512.627.2008895 1.236.5767085 1.737.375817.501.904447.867 1.506157 1.041l42.49029 12.618c2.484.735 5.1274.735 7.6113 0l42.4904-12.618c.5994-.178 1.1257-.544 1.5009-1.045.3752-.5.5794-1.107.5823-1.733v-50.7422c0-.4531-.1057-.8997-.3088-1.3047-.203-.405-.4979-.7572-.861-1.0282-.363-.271-.7843-.4532-1.2303-.5327s-.9046-.0539-1.3389.075l-41.5821 12.3381c-1.9963.5876-4.1196.5876-6.1159 0z" fill="#f38530"/><path d="m52.9169 114.164c0 .794-.3144 1.556-.875 2.119s-1.3216.882-2.1161.885h-3.0844c-.7968 0-1.5611-.317-2.1246-.88-.5634-.564-.8799-1.327-.8799-2.124v-49.4076c0-.7968.3165-1.5614.8799-2.1249.5635-.5634 1.3278-.8795 2.1246-.8795h3.0844c.7945.0035 1.5555.3217 2.1161.8847.5606.5631.875 1.3252.875 2.1197z" fill="#bb6728" opacity=".5"/></svg>