<svg width="461" height="118" viewBox="0 0 461 118" fill="none" xmlns="http://www.w3.org/2000/svg">
<path fill-rule="evenodd" clip-rule="evenodd" d="M337.241 94.9662C338.336 93.9178 338.984 92.4875 339.051 90.9728V30.667C338.984 29.1523 338.336 27.722 337.241 26.6736C336.146 25.6253 334.688 25.0398 333.172 25.0398C331.656 25.0398 330.198 25.6253 329.103 26.6736C328.008 27.722 327.36 29.1523 327.293 30.667V52.9219C323.592 48.0952 318.247 43.921 309.798 43.921C297.545 43.921 285.979 53.5406 285.979 70.5522V70.7544C285.979 87.766 297.737 97.3856 309.798 97.3856C318.157 97.3856 323.502 93.1104 327.293 87.7662V90.9728C327.36 92.4875 328.008 93.9178 329.103 94.9662C330.198 96.0145 331.656 96.6 333.172 96.6C334.688 96.6 336.146 96.0145 337.241 94.9662ZM297.838 70.7544V70.5522C297.838 60.3475 304.544 54.1256 312.611 54.1256C320.486 54.1256 327.484 60.64 327.484 70.5522V70.7544C327.484 80.5653 320.633 87.1811 312.611 87.1811C304.589 87.1811 297.838 80.6666 297.838 70.7544ZM176.809 70.845C176.809 86.6865 188.285 97.4877 203.148 97.4877C209.96 97.6752 216.58 95.2195 221.622 90.6354C222.596 89.6882 223.154 88.3938 223.175 87.0354C223.193 86.4141 223.086 85.7954 222.859 85.2165C222.633 84.6375 222.292 84.1099 221.857 83.6656C221.423 83.2213 220.903 82.8694 220.329 82.6306C219.755 82.3918 219.139 82.2714 218.517 82.2762C217.413 82.2381 216.335 82.6198 215.502 83.3448C212.128 86.2637 207.812 87.8623 203.351 87.8452C195.767 87.8452 189.838 83.1765 188.566 74.8169H220.745C221.481 74.8231 222.212 74.6809 222.893 74.3994C223.574 74.1179 224.191 73.7028 224.709 73.1782C225.226 72.6535 225.633 72.0298 225.905 71.3449C226.176 70.6601 226.308 69.928 226.291 69.1914C226.291 57.3328 218.224 43.9215 201.888 43.9215C187.216 43.9215 176.809 55.9712 176.809 70.6538V70.845ZM201.798 53.552C209.572 53.552 214.039 59.47 214.815 67.0532H188.477C189.546 59.0987 194.597 53.552 201.798 53.552ZM143.296 48.0676C143.01 48.7878 142.872 49.558 142.888 50.3326V90.9826C142.882 91.7496 143.029 92.5104 143.319 93.2202C143.61 93.93 144.039 94.5748 144.581 95.1171C145.124 95.6595 145.769 96.0888 146.479 96.3796C147.189 96.6704 147.949 96.8168 148.716 96.8109C149.489 96.8198 150.255 96.6758 150.972 96.3873C151.689 96.0988 152.342 95.6714 152.893 95.1298C153.444 94.5882 153.882 93.9429 154.183 93.2312C154.484 92.5195 154.641 91.7553 154.645 90.9826V75.8162C154.645 63.665 160.383 57.2521 168.743 55.7895C170.073 55.5817 171.281 54.8954 172.141 53.8596C173.001 52.8237 173.453 51.5095 173.412 50.164C173.467 49.3834 173.354 48.6 173.08 47.867C172.806 47.1341 172.378 46.469 171.824 45.9162C171.27 45.3635 170.604 44.9358 169.87 44.6631C169.137 44.3905 168.353 44.2789 167.573 44.3357C162.42 44.3357 157.368 49.1737 154.645 55.5868V50.3326C154.651 49.5523 154.502 48.7787 154.206 48.0566C153.91 47.3345 153.474 46.6784 152.922 46.1266C152.37 45.5749 151.714 45.1386 150.992 44.8428C150.27 44.5469 149.496 44.3973 148.716 44.4033C147.941 44.4001 147.174 44.5523 146.458 44.8505C145.743 45.1486 145.095 45.5867 144.552 46.1393C144.009 46.6919 143.582 47.3474 143.296 48.0676ZM231.535 81.5432V81.3405C231.535 70.2582 240.187 64.8237 252.732 64.8237C257.429 64.7812 262.101 65.5151 266.559 66.9954V65.7242C266.559 58.4335 262.059 54.5516 253.823 54.5516C249.936 54.5014 246.076 55.1926 242.448 56.5882C241.85 56.7717 241.229 56.8699 240.603 56.8804C239.957 56.8893 239.317 56.7709 238.717 56.531C238.118 56.2912 237.572 55.9352 237.111 55.4834C236.649 55.0316 236.282 54.4928 236.03 53.8984C235.778 53.3041 235.646 52.6657 235.641 52.0202C235.661 51.0138 235.976 50.0355 236.546 49.2057C237.115 48.376 237.916 47.7311 238.848 47.3511C244.114 45.299 249.725 44.2792 255.376 44.3471C263.06 44.3471 268.787 46.3834 272.387 50.0737C276.179 53.7753 277.934 59.2094 277.934 65.9263V91.1962C277.934 91.9445 277.785 92.6856 277.495 93.3755C277.206 94.0655 276.781 94.6909 276.247 95.2148C275.712 95.7387 275.079 96.1507 274.383 96.4267C273.688 96.7027 272.944 96.8367 272.196 96.8217C268.821 96.8217 266.458 94.4931 266.458 91.8604V89.9249C264.414 92.3628 261.84 94.3013 258.933 95.5922C256.025 96.8831 252.862 97.4923 249.683 97.3733C240.097 97.3733 231.535 91.8379 231.535 81.5432ZM266.728 77.8416V74.3421C262.995 72.9609 259.041 72.2713 255.061 72.3061C247.477 72.3061 243.011 75.5123 243.011 80.8565V81.0482C243.011 86.01 247.387 88.8339 253.024 88.8339C260.799 88.8339 266.728 84.3559 266.728 77.8416ZM373.951 97.4877C359.077 97.4877 347.613 86.6865 347.613 70.845V70.6538C347.613 55.9712 358.009 43.9215 372.691 43.9215C389.016 43.9215 397.083 57.3328 397.083 69.1914C397.102 69.9275 396.971 70.6596 396.701 71.3444C396.43 72.0292 396.025 72.6522 395.508 73.1771C394.992 73.7019 394.375 74.1178 393.695 74.3994C393.014 74.681 392.284 74.8232 391.548 74.8169H359.37C360.63 83.1765 366.559 87.8452 374.143 87.8452C378.604 87.8644 382.921 86.2654 386.294 83.3448C387.127 82.6198 388.205 82.2381 389.309 82.2763C389.931 82.2715 390.548 82.392 391.122 82.6306C391.697 82.8692 392.218 83.221 392.653 83.6651C393.089 84.1092 393.431 84.6364 393.658 85.2154C393.886 85.7944 393.995 86.4135 393.978 87.0354C393.953 88.3927 393.395 89.6854 392.426 90.6354C387.382 95.2175 380.763 97.6729 373.951 97.4877ZM385.619 67.0532C384.842 59.47 380.364 53.552 372.59 53.552C365.4 53.552 360.337 59.0987 359.268 67.0532H385.619ZM405.353 70.7549V70.9461C405.353 85.5275 416.919 97.4877 432.569 97.4877C448.411 97.4877 460.078 85.3813 460.078 70.7549V70.5527C460.078 55.8813 448.512 43.9215 432.76 43.9215C417.009 43.9215 405.353 56.0722 405.353 70.7549ZM448.321 70.7549V70.9461C448.321 79.7894 442.29 87.1816 432.76 87.1816C423.624 87.1816 417.11 79.6882 417.11 70.7549V70.5527C417.11 61.6081 423.141 54.2271 432.569 54.2271C441.806 54.2271 448.321 61.754 448.321 70.7549Z" fill="#4A87CC"/>
<path fill-rule="evenodd" clip-rule="evenodd" d="M337.241 94.9662C338.336 93.9178 338.984 92.4875 339.051 90.9728V30.667C338.984 29.1523 338.336 27.722 337.241 26.6736C336.146 25.6253 334.688 25.0398 333.172 25.0398C331.656 25.0398 330.198 25.6253 329.103 26.6736C328.008 27.722 327.36 29.1523 327.293 30.667V52.9219C323.592 48.0952 318.247 43.921 309.798 43.921C297.545 43.921 285.979 53.5406 285.979 70.5522V70.7544C285.979 87.766 297.737 97.3856 309.798 97.3856C318.157 97.3856 323.502 93.1104 327.293 87.7662V90.9728C327.36 92.4875 328.008 93.9178 329.103 94.9662C330.198 96.0145 331.656 96.6 333.172 96.6C334.688 96.6 336.146 96.0145 337.241 94.9662ZM297.838 70.7544V70.5522C297.838 60.3475 304.544 54.1256 312.611 54.1256C320.486 54.1256 327.484 60.64 327.484 70.5522V70.7544C327.484 80.5653 320.633 87.1811 312.611 87.1811C304.589 87.1811 297.838 80.6666 297.838 70.7544ZM176.809 70.845C176.809 86.6865 188.285 97.4877 203.148 97.4877C209.96 97.6752 216.58 95.2195 221.622 90.6354C222.596 89.6882 223.154 88.3938 223.175 87.0354C223.193 86.4141 223.086 85.7954 222.859 85.2165C222.633 84.6375 222.292 84.1099 221.857 83.6656C221.423 83.2213 220.903 82.8694 220.329 82.6306C219.755 82.3918 219.139 82.2714 218.517 82.2762C217.413 82.2381 216.335 82.6198 215.502 83.3448C212.128 86.2637 207.812 87.8623 203.351 87.8452C195.767 87.8452 189.838 83.1765 188.566 74.8169H220.745C221.481 74.8231 222.212 74.6809 222.893 74.3994C223.574 74.1179 224.191 73.7028 224.709 73.1782C225.226 72.6535 225.633 72.0298 225.905 71.3449C226.176 70.6601 226.308 69.928 226.291 69.1914C226.291 57.3328 218.224 43.9215 201.888 43.9215C187.216 43.9215 176.809 55.9712 176.809 70.6538V70.845ZM201.798 53.552C209.572 53.552 214.039 59.47 214.815 67.0532H188.477C189.546 59.0987 194.597 53.552 201.798 53.552ZM143.296 48.0676C143.01 48.7878 142.872 49.558 142.888 50.3326V90.9826C142.882 91.7496 143.029 92.5104 143.319 93.2202C143.61 93.93 144.039 94.5748 144.581 95.1171C145.124 95.6595 145.769 96.0888 146.479 96.3796C147.189 96.6704 147.949 96.8168 148.716 96.8109C149.489 96.8198 150.255 96.6758 150.972 96.3873C151.689 96.0988 152.342 95.6714 152.893 95.1298C153.444 94.5882 153.882 93.9429 154.183 93.2312C154.484 92.5195 154.641 91.7553 154.645 90.9826V75.8162C154.645 63.665 160.383 57.2521 168.743 55.7895C170.073 55.5817 171.281 54.8954 172.141 53.8596C173.001 52.8237 173.453 51.5095 173.412 50.164C173.467 49.3834 173.354 48.6 173.08 47.867C172.806 47.1341 172.378 46.469 171.824 45.9162C171.27 45.3635 170.604 44.9358 169.87 44.6631C169.137 44.3905 168.353 44.2789 167.573 44.3357C162.42 44.3357 157.368 49.1737 154.645 55.5868V50.3326C154.651 49.5523 154.502 48.7787 154.206 48.0566C153.91 47.3345 153.474 46.6784 152.922 46.1266C152.37 45.5749 151.714 45.1386 150.992 44.8428C150.27 44.5469 149.496 44.3973 148.716 44.4033C147.941 44.4001 147.174 44.5523 146.458 44.8505C145.743 45.1486 145.095 45.5867 144.552 46.1393C144.009 46.6919 143.582 47.3474 143.296 48.0676ZM231.535 81.5432V81.3405C231.535 70.2582 240.187 64.8237 252.732 64.8237C257.429 64.7812 262.101 65.5151 266.559 66.9954V65.7242C266.559 58.4335 262.059 54.5516 253.823 54.5516C249.936 54.5014 246.076 55.1926 242.448 56.5882C241.85 56.7717 241.229 56.8699 240.603 56.8804C239.957 56.8893 239.317 56.7709 238.717 56.531C238.118 56.2912 237.572 55.9352 237.111 55.4834C236.649 55.0316 236.282 54.4928 236.03 53.8984C235.778 53.3041 235.646 52.6657 235.641 52.0202C235.661 51.0138 235.976 50.0355 236.546 49.2057C237.115 48.376 237.916 47.7311 238.848 47.3511C244.114 45.299 249.725 44.2792 255.376 44.3471C263.06 44.3471 268.787 46.3834 272.387 50.0737C276.179 53.7753 277.934 59.2094 277.934 65.9263V91.1962C277.934 91.9445 277.785 92.6856 277.495 93.3755C277.206 94.0655 276.781 94.6909 276.247 95.2148C275.712 95.7387 275.079 96.1507 274.383 96.4267C273.688 96.7027 272.944 96.8367 272.196 96.8217C268.821 96.8217 266.458 94.4931 266.458 91.8604V89.9249C264.414 92.3628 261.84 94.3013 258.933 95.5922C256.025 96.8831 252.862 97.4923 249.683 97.3733C240.097 97.3733 231.535 91.8379 231.535 81.5432ZM266.728 77.8416V74.3421C262.995 72.9609 259.041 72.2713 255.061 72.3061C247.477 72.3061 243.011 75.5123 243.011 80.8565V81.0482C243.011 86.01 247.387 88.8339 253.024 88.8339C260.799 88.8339 266.728 84.3559 266.728 77.8416ZM373.951 97.4877C359.077 97.4877 347.613 86.6865 347.613 70.845V70.6538C347.613 55.9712 358.009 43.9215 372.691 43.9215C389.016 43.9215 397.083 57.3328 397.083 69.1914C397.102 69.9275 396.971 70.6596 396.701 71.3444C396.43 72.0292 396.025 72.6522 395.508 73.1771C394.992 73.7019 394.375 74.1178 393.695 74.3994C393.014 74.681 392.284 74.8232 391.548 74.8169H359.37C360.63 83.1765 366.559 87.8452 374.143 87.8452C378.604 87.8644 382.921 86.2654 386.294 83.3448C387.127 82.6198 388.205 82.2381 389.309 82.2763C389.931 82.2715 390.548 82.392 391.122 82.6306C391.697 82.8692 392.218 83.221 392.653 83.6651C393.089 84.1092 393.431 84.6364 393.658 85.2154C393.886 85.7944 393.995 86.4135 393.978 87.0354C393.953 88.3927 393.395 89.6854 392.426 90.6354C387.382 95.2175 380.763 97.6729 373.951 97.4877ZM385.619 67.0532C384.842 59.47 380.364 53.552 372.59 53.552C365.4 53.552 360.337 59.0987 359.268 67.0532H385.619ZM405.353 70.7549V70.9461C405.353 85.5275 416.919 97.4877 432.569 97.4877C448.411 97.4877 460.078 85.3813 460.078 70.7549V70.5527C460.078 55.8813 448.512 43.9215 432.76 43.9215C417.009 43.9215 405.353 56.0722 405.353 70.7549ZM448.321 70.7549V70.9461C448.321 79.7894 442.29 87.1816 432.76 87.1816C423.624 87.1816 417.11 79.6882 417.11 70.7549V70.5527C417.11 61.6081 423.141 54.2271 432.569 54.2271C441.806 54.2271 448.321 61.754 448.321 70.7549Z" fill="url(#paint0_linear)" fill-opacity="0.2"/>
<path fill-rule="evenodd" clip-rule="evenodd" d="M24.7274 17.6053C24.7206 20.9752 25.6643 24.2785 27.4499 27.1365C29.2356 29.9944 31.7909 32.2914 34.8226 33.7629C28.0305 35.5235 21.8688 39.1551 17.0388 44.2447C12.2089 49.3344 8.90429 55.6771 7.50146 62.5521H33.7142C34.6406 57.6956 36.9095 53.1963 40.2634 49.5639C43.6173 45.9315 47.9219 43.3118 52.6892 42.0018C50.5655 40.917 48.7845 39.264 47.5444 37.2271C46.3044 35.1902 45.6539 32.849 45.6653 30.4644C45.6154 27.1056 46.901 23.8648 49.2397 21.4535C51.5783 19.0422 54.7787 17.658 58.1374 17.6053C58.9946 17.6055 59.8492 17.6946 60.6878 17.8719V17.6053C60.5601 12.9214 58.61 8.47231 55.2519 5.20456C51.8939 1.93681 47.393 0.108398 42.7074 0.108398C38.0219 0.108398 33.5213 1.93681 30.1633 5.20456C26.8053 8.47231 24.8551 12.9214 24.7274 17.6053V17.6053Z" fill="#3DB8E5"/>
<path fill-rule="evenodd" clip-rule="evenodd" d="M51.688 33.4559C51.6722 35.8398 52.3193 38.1807 53.5573 40.218C54.7953 42.2553 56.5753 43.9085 58.6984 44.9927C53.9358 46.3091 49.6364 48.9311 46.2857 52.5626C42.9349 56.1942 40.6665 60.6907 39.7368 65.5436H90.6662C89.698 60.4381 87.246 55.7311 83.6169 52.0117C79.9878 48.2923 75.3426 45.7254 70.2623 44.6322C72.2169 43.4959 73.8374 41.8647 74.9604 39.9024C76.0834 37.9402 76.669 35.7168 76.6586 33.4559C76.6586 30.1446 75.3432 26.9684 73.0017 24.627C70.6603 22.2855 67.4847 20.9705 64.1734 20.9705C60.8621 20.9705 57.6863 22.2855 55.3448 24.627C53.0033 26.9684 51.688 30.1446 51.688 33.4559V33.4559Z" fill="#3DB8E5"/>
<path d="M48.4562 61.6176C48.4562 61.6176 48.456 44.3783 4.1898 44.3783L3.41553 82.9829L48.4562 97.5111L94.3513 83.1831L92.5756 43.1232C51.2604 43.0697 48.4562 61.6176 48.4562 61.6176Z" fill="url(#paint1_linear)"/>
<path d="M45.3987 60.7093L3.81631 48.3712C3.38197 48.2423 2.92374 48.2167 2.47772 48.2962C2.0317 48.3757 1.61043 48.5579 1.24736 48.8289C0.884299 49.0999 0.589448 49.4521 0.386375 49.8571C0.183301 50.2621 0.0776395 50.7087 0.0776445 51.1618V101.904C0.0761933 102.531 0.278534 103.14 0.654353 103.641C1.03017 104.142 1.5588 104.508 2.16051 104.682L44.6508 117.3C47.1348 118.035 49.7782 118.035 52.2621 117.3L94.7525 104.682C95.3519 104.504 95.8782 104.138 96.2534 103.637C96.6286 103.137 96.8328 102.53 96.8357 101.904V51.1618C96.8357 50.7087 96.73 50.2621 96.5269 49.8571C96.3239 49.4521 96.029 49.0999 95.6659 48.8289C95.3029 48.5579 94.8816 48.3757 94.4356 48.2962C93.9896 48.2167 93.531 48.2423 93.0967 48.3712L51.5146 60.7093C49.5183 61.2969 47.395 61.2969 45.3987 60.7093V60.7093Z" fill="#F38530"/>
<path opacity="0.5" d="M52.9169 114.164C52.9169 114.958 52.6025 115.72 52.0419 116.283C51.4813 116.846 50.7203 117.165 49.9258 117.168H46.8414C46.0446 117.168 45.2803 116.851 44.7168 116.288C44.1534 115.724 43.8369 114.961 43.8369 114.164V64.7564C43.8369 63.9596 44.1534 63.195 44.7168 62.6315C45.2803 62.0681 46.0446 61.752 46.8414 61.752H49.9258C50.7203 61.7555 51.4813 62.0737 52.0419 62.6367C52.6025 63.1998 52.9169 63.9619 52.9169 64.7564V114.164Z" fill="#BB6728"/>
<defs>
<linearGradient id="paint0_linear" x1="301.482" y1="25.0398" x2="301.482" y2="97.4977" gradientUnits="userSpaceOnUse">
<stop stop-color="#083261"/>
<stop offset="0.769047" stop-color="#053469" stop-opacity="0"/>
</linearGradient>
<linearGradient id="paint1_linear" x1="48.8834" y1="61.5374" x2="48.8834" y2="43.6172" gradientUnits="userSpaceOnUse">
<stop stop-color="#CACBCD"/>
<stop offset="0.06" stop-color="#D1D2D4"/>
<stop offset="0.22" stop-color="#DDDEDF"/>
<stop offset="0.44" stop-color="#E4E5E6"/>
<stop offset="1" stop-color="#E6E7E8"/>
</linearGradient>
</defs>
</svg>
